<svg width="722" height="69" viewBox="0 0 722 69" fill="none" xmlns="http://www.w3.org/2000/svg">
<g filter="url(#filter0_d_10116_3)">
<path opacity="0.4" d="M11.1562 8.67969C11.1562 8.07552 10.9349 7.59635 10.4922 7.24219C10.0547 6.88281 9.4375 6.70312 8.64062 6.70312C7.97396 6.70312 7.41406 6.88802 6.96094 7.25781C6.51302 7.6224 6.28906 8.07552 6.28906 8.61719H4.78906C4.78906 8.01302 4.95312 7.47135 5.28125 6.99219C5.61458 6.51302 6.07812 6.14062 6.67188 5.875C7.26562 5.60417 7.92188 5.46875 8.64062 5.46875C9.91146 5.46875 10.8984 5.75521 11.6016 6.32812C12.3047 6.89583 12.6562 7.6875 12.6562 8.70312C12.6562 9.22917 12.4948 9.70833 12.1719 10.1406C11.849 10.5729 11.3984 10.9141 10.8203 11.1641C12.1589 11.612 12.8281 12.5 12.8281 13.8281C12.8281 14.849 12.4479 15.6589 11.6875 16.2578C10.9271 16.8568 9.91146 17.1562 8.64062 17.1562C7.88542 17.1562 7.19792 17.0234 6.57812 16.7578C5.96354 16.487 5.48438 16.1042 5.14062 15.6094C4.79688 15.1146 4.625 14.526 4.625 13.8438H6.125C6.125 14.4427 6.36198 14.9427 6.83594 15.3438C7.3099 15.7396 7.91146 15.9375 8.64062 15.9375C9.45833 15.9375 10.1094 15.7474 10.5938 15.3672C11.0833 14.987 11.3281 14.4844 11.3281 13.8594C11.3281 12.526 10.5026 11.8464 8.85156 11.8203H7.44531V10.5859H8.84375C9.60417 10.5703 10.1797 10.3984 10.5703 10.0703C10.9609 9.74219 11.1562 9.27865 11.1562 8.67969ZM19.8125 17C19.7292 16.8333 19.6615 16.5365 19.6094 16.1094C18.9375 16.8073 18.1354 17.1562 17.2031 17.1562C16.3698 17.1562 15.6849 16.9219 15.1484 16.4531C14.6172 15.9792 14.3516 15.3802 14.3516 14.6562C14.3516 13.776 14.6849 13.0938 15.3516 12.6094C16.0234 12.1198 16.9661 11.875 18.1797 11.875H19.5859V11.2109C19.5859 10.7057 19.4349 10.3047 19.1328 10.0078C18.8307 9.70573 18.3854 9.55469 17.7969 9.55469C17.2812 9.55469 16.849 9.6849 16.5 9.94531C16.151 10.2057 15.9766 10.5208 15.9766 10.8906H14.5234C14.5234 10.4688 14.6719 10.0625 14.9688 9.67188C15.2708 9.27604 15.6771 8.96354 16.1875 8.73438C16.7031 8.50521 17.2682 8.39062 17.8828 8.39062C18.8568 8.39062 19.6198 8.63542 20.1719 9.125C20.724 9.60938 21.0104 10.2786 21.0312 11.1328V15.0234C21.0312 15.7995 21.1302 16.4167 21.3281 16.875V17H19.8125ZM17.4141 15.8984C17.8672 15.8984 18.2969 15.7812 18.7031 15.5469C19.1094 15.3125 19.4036 15.0078 19.5859 14.6328V12.8984H18.4531C16.6823 12.8984 15.7969 13.4167 15.7969 14.4531C15.7969 14.9062 15.9479 15.2604 16.25 15.5156C16.5521 15.7708 16.9401 15.8984 17.4141 15.8984ZM30.4375 12.8672C30.4375 14.1536 30.1432 15.1901 29.5547 15.9766C28.9661 16.763 28.1693 17.1562 27.1641 17.1562C26.138 17.1562 25.3307 16.8307 24.7422 16.1797V20.25H23.2969V8.54688H24.6172L24.6875 9.48438C25.276 8.75521 26.0938 8.39062 27.1406 8.39062C28.1562 8.39062 28.9583 8.77344 29.5469 9.53906C30.1406 10.3047 30.4375 11.3698 30.4375 12.7344V12.8672ZM28.9922 12.7031C28.9922 11.75 28.7891 10.9974 28.3828 10.4453C27.9766 9.89323 27.4193 9.61719 26.7109 9.61719C25.8359 9.61719 25.1797 10.0052 24.7422 10.7812V14.8203C25.1745 15.5911 25.8359 15.9766 26.7266 15.9766C27.4193 15.9766 27.9688 15.7031 28.375 15.1562C28.7865 14.6042 28.9922 13.7865 28.9922 12.7031ZM37.5 17C37.4167 16.8333 37.349 16.5365 37.2969 16.1094C36.625 16.8073 35.8229 17.1562 34.8906 17.1562C34.0573 17.1562 33.3724 16.9219 32.8359 16.4531C32.3047 15.9792 32.0391 15.3802 32.0391 14.6562C32.0391 13.776 32.3724 13.0938 33.0391 12.6094C33.7109 12.1198 34.6536 11.875 35.8672 11.875H37.2734V11.2109C37.2734 10.7057 37.1224 10.3047 36.8203 10.0078C36.5182 9.70573 36.0729 9.55469 35.4844 9.55469C34.9688 9.55469 34.5365 9.6849 34.1875 9.94531C33.8385 10.2057 33.6641 10.5208 33.6641 10.8906H32.2109C32.2109 10.4688 32.3594 10.0625 32.6562 9.67188C32.9583 9.27604 33.3646 8.96354 33.875 8.73438C34.3906 8.50521 34.9557 8.39062 35.5703 8.39062C36.5443 8.39062 37.3073 8.63542 37.8594 9.125C38.4115 9.60938 38.6979 10.2786 38.7188 11.1328V15.0234C38.7188 15.7995 38.8177 16.4167 39.0156 16.875V17H37.5ZM35.1016 15.8984C35.5547 15.8984 35.9844 15.7812 36.3906 15.5469C36.7969 15.3125 37.0911 15.0078 37.2734 14.6328V12.8984H36.1406C34.3698 12.8984 33.4844 13.4167 33.4844 14.4531C33.4844 14.9062 33.6354 15.2604 33.9375 15.5156C34.2396 15.7708 34.6276 15.8984 35.1016 15.8984ZM44.6953 9.03125C45.7578 9.03125 46.6068 9.38802 47.2422 10.1016C47.8828 10.8099 48.2031 11.7448 48.2031 12.9062V13.0391C48.2031 13.8359 48.0495 14.5495 47.7422 15.1797C47.4349 15.8047 46.9922 16.2917 46.4141 16.6406C45.8411 16.9844 45.1797 17.1562 44.4297 17.1562C43.2943 17.1562 42.3802 16.7786 41.6875 16.0234C40.9948 15.263 40.6484 14.2448 40.6484 12.9688V12.2656C40.6484 10.4896 40.9766 9.07812 41.6328 8.03125C42.2943 6.98438 43.2682 6.34635 44.5547 6.11719C45.2839 5.98698 45.776 5.82812 46.0312 5.64062C46.2865 5.45312 46.4141 5.19531 46.4141 4.86719H47.6016C47.6016 5.51823 47.4531 6.02604 47.1562 6.39062C46.8646 6.75521 46.3958 7.01302 45.75 7.16406L44.6719 7.40625C43.8125 7.60938 43.1667 7.95312 42.7344 8.4375C42.3073 8.91667 42.0286 9.55729 41.8984 10.3594C42.6641 9.47396 43.5964 9.03125 44.6953 9.03125ZM44.4141 10.2188C43.7057 10.2188 43.1432 10.4583 42.7266 10.9375C42.3099 11.4115 42.1016 12.0703 42.1016 12.9141V13.0391C42.1016 13.9453 42.3099 14.6641 42.7266 15.1953C43.1484 15.7214 43.7161 15.9844 44.4297 15.9844C45.1484 15.9844 45.7161 15.7188 46.1328 15.1875C46.5495 14.6562 46.7578 13.8802 46.7578 12.8594C46.7578 12.0625 46.5469 11.4245 46.125 10.9453C45.7083 10.4609 45.138 10.2188 44.4141 10.2188ZM49.4453 12.6953C49.4453 11.8672 49.6068 11.1224 49.9297 10.4609C50.2578 9.79948 50.7109 9.28906 51.2891 8.92969C51.8724 8.57031 52.5365 8.39062 53.2812 8.39062C54.4323 8.39062 55.362 8.78906 56.0703 9.58594C56.7839 10.3828 57.1406 11.4427 57.1406 12.7656V12.8672C57.1406 13.6901 56.9818 14.4297 56.6641 15.0859C56.3516 15.737 55.901 16.2448 55.3125 16.6094C54.7292 16.974 54.0573 17.1562 53.2969 17.1562C52.151 17.1562 51.2214 16.7578 50.5078 15.9609C49.7995 15.1641 49.4453 14.1094 49.4453 12.7969V12.6953ZM50.8984 12.8672C50.8984 13.8047 51.1146 14.5573 51.5469 15.125C51.9844 15.6927 52.5677 15.9766 53.2969 15.9766C54.0312 15.9766 54.6146 15.6901 55.0469 15.1172C55.4792 14.5391 55.6953 13.7318 55.6953 12.6953C55.6953 11.7682 55.474 11.0182 55.0312 10.4453C54.5938 9.86719 54.0104 9.57812 53.2812 9.57812C52.5677 9.57812 51.9922 9.86198 51.5547 10.4297C51.1172 10.9974 50.8984 11.8099 50.8984 12.8672ZM65.0625 9.71875H62.2266V17H60.7812V9.71875H58V8.54688H65.0625V9.71875ZM71.5625 17C71.4792 16.8333 71.4115 16.5365 71.3594 16.1094C70.6875 16.8073 69.8854 17.1562 68.9531 17.1562C68.1198 17.1562 67.4349 16.9219 66.8984 16.4531C66.3672 15.9792 66.1016 15.3802 66.1016 14.6562C66.1016 13.776 66.4349 13.0938 67.1016 12.6094C67.7734 12.1198 68.7161 11.875 69.9297 11.875H71.3359V11.2109C71.3359 10.7057 71.1849 10.3047 70.8828 10.0078C70.5807 9.70573 70.1354 9.55469 69.5469 9.55469C69.0312 9.55469 68.599 9.6849 68.25 9.94531C67.901 10.2057 67.7266 10.5208 67.7266 10.8906H66.2734C66.2734 10.4688 66.4219 10.0625 66.7188 9.67188C67.0208 9.27604 67.4271 8.96354 67.9375 8.73438C68.4531 8.50521 69.0182 8.39062 69.6328 8.39062C70.6068 8.39062 71.3698 8.63542 71.9219 9.125C72.474 9.60938 72.7604 10.2786 72.7812 11.1328V15.0234C72.7812 15.7995 72.8802 16.4167 73.0781 16.875V17H71.5625ZM69.1641 15.8984C69.6172 15.8984 70.0469 15.7812 70.4531 15.5469C70.8594 15.3125 71.1536 15.0078 71.3359 14.6328V12.8984H70.2031C68.4323 12.8984 67.5469 13.4167 67.5469 14.4531C67.5469 14.9062 67.6979 15.2604 68 15.5156C68.3021 15.7708 68.6901 15.8984 69.1641 15.8984ZM81.9531 17H80.5078V13.3906H76.625V17H75.1719V8.54688H76.625V12.2109H80.5078V8.54688H81.9531V17ZM83.8984 12.6953C83.8984 11.8672 84.0599 11.1224 84.3828 10.4609C84.7109 9.79948 85.1641 9.28906 85.7422 8.92969C86.3255 8.57031 86.9896 8.39062 87.7344 8.39062C88.8854 8.39062 89.8151 8.78906 90.5234 9.58594C91.237 10.3828 91.5938 11.4427 91.5938 12.7656V12.8672C91.5938 13.6901 91.4349 14.4297 91.1172 15.0859C90.8047 15.737 90.3542 16.2448 89.7656 16.6094C89.1823 16.974 88.5104 17.1562 87.75 17.1562C86.6042 17.1562 85.6745 16.7578 84.9609 15.9609C84.2526 15.1641 83.8984 14.1094 83.8984 12.7969V12.6953ZM85.3516 12.8672C85.3516 13.8047 85.5677 14.5573 86 15.125C86.4375 15.6927 87.0208 15.9766 87.75 15.9766C88.4844 15.9766 89.0677 15.6901 89.5 15.1172C89.9323 14.5391 90.1484 13.7318 90.1484 12.6953C90.1484 11.7682 89.9271 11.0182 89.4844 10.4453C89.0469 9.86719 88.4635 9.57812 87.7344 9.57812C87.0208 9.57812 86.4453 9.86198 86.0078 10.4297C85.5703 10.9974 85.3516 11.8099 85.3516 12.8672ZM100.141 14.8828L102.109 8.54688H103.656L100.258 18.3047C99.7318 19.7109 98.8958 20.4141 97.75 20.4141L97.4766 20.3906L96.9375 20.2891V19.1172L97.3281 19.1484C97.8177 19.1484 98.1979 19.0495 98.4688 18.8516C98.7448 18.6536 98.9714 18.2917 99.1484 17.7656L99.4688 16.9062L96.4531 8.54688H98.0312L100.141 14.8828ZM111.336 17H109.883V13.9375C109.247 14.1042 108.596 14.1875 107.93 14.1875C106.872 14.1875 106.065 13.9167 105.508 13.375C104.956 12.8333 104.674 12.0625 104.664 11.0625V8.53906H106.109V11.1094C106.135 12.3698 106.742 13 107.93 13C108.596 13 109.247 12.9167 109.883 12.75V8.54688H111.336V17ZM117.164 17.1562C116.018 17.1562 115.086 16.7812 114.367 16.0312C113.648 15.276 113.289 14.2682 113.289 13.0078V12.7422C113.289 11.9036 113.448 11.1562 113.766 10.5C114.089 9.83854 114.536 9.32292 115.109 8.95312C115.688 8.57812 116.312 8.39062 116.984 8.39062C118.083 8.39062 118.938 8.7526 119.547 9.47656C120.156 10.2005 120.461 11.237 120.461 12.5859V13.1875H114.734C114.755 14.0208 114.997 14.6953 115.461 15.2109C115.93 15.7214 116.523 15.9766 117.242 15.9766C117.753 15.9766 118.185 15.8724 118.539 15.6641C118.893 15.4557 119.203 15.1797 119.469 14.8359L120.352 15.5234C119.643 16.612 118.581 17.1562 117.164 17.1562ZM116.984 9.57812C116.401 9.57812 115.911 9.79167 115.516 10.2188C115.12 10.6406 114.875 11.2344 114.781 12H119.016V11.8906C118.974 11.1562 118.776 10.5885 118.422 10.1875C118.068 9.78125 117.589 9.57812 116.984 9.57812ZM129.047 17H127.602V13.3906H123.719V17H122.266V8.54688H123.719V12.2109H127.602V8.54688H129.047V17ZM136.844 8.54688H138.289V17H136.844V10.8359L132.945 17H131.5V8.54688H132.945V14.7188L136.844 8.54688ZM143.242 13.3984H142.188V17H140.734V8.54688H142.188V12.125H143.133L145.977 8.54688H147.727L144.383 12.6094L148.008 17H146.172L143.242 13.3984ZM154.469 17C154.385 16.8333 154.318 16.5365 154.266 16.1094C153.594 16.8073 152.792 17.1562 151.859 17.1562C151.026 17.1562 150.341 16.9219 149.805 16.4531C149.273 15.9792 149.008 15.3802 149.008 14.6562C149.008 13.776 149.341 13.0938 150.008 12.6094C150.68 12.1198 151.622 11.875 152.836 11.875H154.242V11.2109C154.242 10.7057 154.091 10.3047 153.789 10.0078C153.487 9.70573 153.042 9.55469 152.453 9.55469C151.938 9.55469 151.505 9.6849 151.156 9.94531C150.807 10.2057 150.633 10.5208 150.633 10.8906H149.18C149.18 10.4688 149.328 10.0625 149.625 9.67188C149.927 9.27604 150.333 8.96354 150.844 8.73438C151.359 8.50521 151.924 8.39062 152.539 8.39062C153.513 8.39062 154.276 8.63542 154.828 9.125C155.38 9.60938 155.667 10.2786 155.688 11.1328V15.0234C155.688 15.7995 155.786 16.4167 155.984 16.875V17H154.469ZM152.07 15.8984C152.523 15.8984 152.953 15.7812 153.359 15.5469C153.766 15.3125 154.06 15.0078 154.242 14.6328V12.8984H153.109C151.339 12.8984 150.453 13.4167 150.453 14.4531C150.453 14.9062 150.604 15.2604 150.906 15.5156C151.208 15.7708 151.596 15.8984 152.07 15.8984ZM162.82 15.0859L165.695 8.54688H167.5V17H166.055V10.8516L163.32 17H162.32L159.531 10.7188V17H158.086V8.54688H159.961L162.82 15.0859ZM175.297 8.54688H176.742V17H175.297V10.8359L171.398 17H169.953V8.54688H171.398V14.7188L175.297 8.54688ZM179.016 16.2422C179.016 15.9922 179.089 15.7839 179.234 15.6172C179.385 15.4505 179.609 15.3672 179.906 15.3672C180.203 15.3672 180.427 15.4505 180.578 15.6172C180.734 15.7839 180.812 15.9922 180.812 16.2422C180.812 16.4818 180.734 16.6823 180.578 16.8438C180.427 17.0052 180.203 17.0859 179.906 17.0859C179.609 17.0859 179.385 17.0052 179.234 16.8438C179.089 16.6823 179.016 16.4818 179.016 16.2422ZM179.023 9.34375C179.023 9.09375 179.096 8.88542 179.242 8.71875C179.393 8.55208 179.617 8.46875 179.914 8.46875C180.211 8.46875 180.435 8.55208 180.586 8.71875C180.742 8.88542 180.82 9.09375 180.82 9.34375C180.82 9.58333 180.742 9.78385 180.586 9.94531C180.435 10.1068 180.211 10.1875 179.914 10.1875C179.617 10.1875 179.393 10.1068 179.242 9.94531C179.096 9.78385 179.023 9.58333 179.023 9.34375Z" fill="white"/>
<path opacity="0.4" d="M12.0781 55.1484C12.0781 56.8411 11.7891 58.099 11.2109 58.9219C10.6328 59.7448 9.72917 60.1562 8.5 60.1562C7.28646 60.1562 6.38802 59.7552 5.80469 58.9531C5.22135 58.1458 4.91927 56.9427 4.89844 55.3438V53.4141C4.89844 51.7422 5.1875 50.5 5.76562 49.6875C6.34375 48.875 7.25 48.4688 8.48438 48.4688C9.70833 48.4688 10.6094 48.862 11.1875 49.6484C11.7656 50.4297 12.0625 51.638 12.0781 53.2734V55.1484ZM10.6328 53.1719C10.6328 51.9479 10.4609 51.0573 10.1172 50.5C9.77344 49.9375 9.22917 49.6562 8.48438 49.6562C7.74479 49.6562 7.20573 49.9349 6.86719 50.4922C6.52865 51.0495 6.35417 51.9062 6.34375 53.0625V55.375C6.34375 56.6042 6.52083 57.513 6.875 58.1016C7.23438 58.6849 7.77604 58.9766 8.5 58.9766C9.21354 58.9766 9.74219 58.7005 10.0859 58.1484C10.4349 57.5964 10.6172 56.7266 10.6328 55.5391V53.1719Z" fill="white"/>
<path opacity="0.4" d="M642.242 60H640.789V50.3672L637.875 51.4375V50.125L642.016 48.5703H642.242V60ZM657.578 55.1484C657.578 56.8411 657.289 58.099 656.711 58.9219C656.133 59.7448 655.229 60.1562 654 60.1562C652.786 60.1562 651.888 59.7552 651.305 58.9531C650.721 58.1458 650.419 56.9427 650.398 55.3438V53.4141C650.398 51.7422 650.688 50.5 651.266 49.6875C651.844 48.875 652.75 48.4688 653.984 48.4688C655.208 48.4688 656.109 48.862 656.688 49.6484C657.266 50.4297 657.562 51.638 657.578 53.2734V55.1484ZM656.133 53.1719C656.133 51.9479 655.961 51.0573 655.617 50.5C655.273 49.9375 654.729 49.6562 653.984 49.6562C653.245 49.6562 652.706 49.9349 652.367 50.4922C652.029 51.0495 651.854 51.9062 651.844 53.0625V55.375C651.844 56.6042 652.021 57.513 652.375 58.1016C652.734 58.6849 653.276 58.9766 654 58.9766C654.714 58.9766 655.242 58.7005 655.586 58.1484C655.935 57.5964 656.117 56.7266 656.133 55.5391V53.1719ZM666.562 55.1484C666.562 56.8411 666.273 58.099 665.695 58.9219C665.117 59.7448 664.214 60.1562 662.984 60.1562C661.771 60.1562 660.872 59.7552 660.289 58.9531C659.706 58.1458 659.404 56.9427 659.383 55.3438V53.4141C659.383 51.7422 659.672 50.5 660.25 49.6875C660.828 48.875 661.734 48.4688 662.969 48.4688C664.193 48.4688 665.094 48.862 665.672 49.6484C666.25 50.4297 666.547 51.638 666.562 53.2734V55.1484ZM665.117 53.1719C665.117 51.9479 664.945 51.0573 664.602 50.5C664.258 49.9375 663.714 49.6562 662.969 49.6562C662.229 49.6562 661.69 49.9349 661.352 50.4922C661.013 51.0495 660.839 51.9062 660.828 53.0625V55.375C660.828 56.6042 661.005 57.513 661.359 58.1016C661.719 58.6849 662.26 58.9766 662.984 58.9766C663.698 58.9766 664.227 58.7005 664.57 58.1484C664.919 57.5964 665.102 56.7266 665.117 55.5391V53.1719ZM675.547 55.1484C675.547 56.8411 675.258 58.099 674.68 58.9219C674.102 59.7448 673.198 60.1562 671.969 60.1562C670.755 60.1562 669.857 59.7552 669.273 58.9531C668.69 58.1458 668.388 56.9427 668.367 55.3438V53.4141C668.367 51.7422 668.656 50.5 669.234 49.6875C669.812 48.875 670.719 48.4688 671.953 48.4688C673.177 48.4688 674.078 48.862 674.656 49.6484C675.234 50.4297 675.531 51.638 675.547 53.2734V55.1484ZM674.102 53.1719C674.102 51.9479 673.93 51.0573 673.586 50.5C673.242 49.9375 672.698 49.6562 671.953 49.6562C671.214 49.6562 670.674 49.9349 670.336 50.4922C669.997 51.0495 669.823 51.9062 669.812 53.0625V55.375C669.812 56.6042 669.99 57.513 670.344 58.1016C670.703 58.6849 671.245 58.9766 671.969 58.9766C672.682 58.9766 673.211 58.7005 673.555 58.1484C673.904 57.5964 674.086 56.7266 674.102 55.5391V53.1719ZM688.5 55.1484C688.5 56.8411 688.211 58.099 687.633 58.9219C687.055 59.7448 686.151 60.1562 684.922 60.1562C683.708 60.1562 682.81 59.7552 682.227 58.9531C681.643 58.1458 681.341 56.9427 681.32 55.3438V53.4141C681.32 51.7422 681.609 50.5 682.188 49.6875C682.766 48.875 683.672 48.4688 684.906 48.4688C686.13 48.4688 687.031 48.862 687.609 49.6484C688.188 50.4297 688.484 51.638 688.5 53.2734V55.1484ZM687.055 53.1719C687.055 51.9479 686.883 51.0573 686.539 50.5C686.195 49.9375 685.651 49.6562 684.906 49.6562C684.167 49.6562 683.628 49.9349 683.289 50.4922C682.951 51.0495 682.776 51.9062 682.766 53.0625V55.375C682.766 56.6042 682.943 57.513 683.297 58.1016C683.656 58.6849 684.198 58.9766 684.922 58.9766C685.635 58.9766 686.164 58.7005 686.508 58.1484C686.857 57.5964 687.039 56.7266 687.055 55.5391V53.1719ZM697.484 55.1484C697.484 56.8411 697.195 58.099 696.617 58.9219C696.039 59.7448 695.135 60.1562 693.906 60.1562C692.693 60.1562 691.794 59.7552 691.211 58.9531C690.628 58.1458 690.326 56.9427 690.305 55.3438V53.4141C690.305 51.7422 690.594 50.5 691.172 49.6875C691.75 48.875 692.656 48.4688 693.891 48.4688C695.115 48.4688 696.016 48.862 696.594 49.6484C697.172 50.4297 697.469 51.638 697.484 53.2734V55.1484ZM696.039 53.1719C696.039 51.9479 695.867 51.0573 695.523 50.5C695.18 49.9375 694.635 49.6562 693.891 49.6562C693.151 49.6562 692.612 49.9349 692.273 50.4922C691.935 51.0495 691.76 51.9062 691.75 53.0625V55.375C691.75 56.6042 691.927 57.513 692.281 58.1016C692.641 58.6849 693.182 58.9766 693.906 58.9766C694.62 58.9766 695.148 58.7005 695.492 58.1484C695.841 57.5964 696.023 56.7266 696.039 55.5391V53.1719ZM706.469 55.1484C706.469 56.8411 706.18 58.099 705.602 58.9219C705.023 59.7448 704.12 60.1562 702.891 60.1562C701.677 60.1562 700.779 59.7552 700.195 58.9531C699.612 58.1458 699.31 56.9427 699.289 55.3438V53.4141C699.289 51.7422 699.578 50.5 700.156 49.6875C700.734 48.875 701.641 48.4688 702.875 48.4688C704.099 48.4688 705 48.862 705.578 49.6484C706.156 50.4297 706.453 51.638 706.469 53.2734V55.1484ZM705.023 53.1719C705.023 51.9479 704.852 51.0573 704.508 50.5C704.164 49.9375 703.62 49.6562 702.875 49.6562C702.135 49.6562 701.596 49.9349 701.258 50.4922C700.919 51.0495 700.745 51.9062 700.734 53.0625V55.375C700.734 56.6042 700.911 57.513 701.266 58.1016C701.625 58.6849 702.167 58.9766 702.891 58.9766C703.604 58.9766 704.133 58.7005 704.477 58.1484C704.826 57.5964 705.008 56.7266 705.023 55.5391V53.1719ZM713.344 57.8516H710.727V60H709.234V57.8516H707.617V56.6172H709.234V55.5469H707.617V54.3203H709.234V48.625H713.43C714.648 48.625 715.615 48.9349 716.328 49.5547C717.042 50.1745 717.398 51.013 717.398 52.0703C717.398 53.1797 717.055 54.0365 716.367 54.6406C715.685 55.2396 714.714 55.5417 713.453 55.5469H710.727V56.6172H713.344V57.8516ZM710.727 54.3203H713.43C714.237 54.3203 714.852 54.1302 715.273 53.75C715.695 53.3698 715.906 52.8151 715.906 52.0859C715.906 51.4245 715.688 50.8906 715.25 50.4844C714.812 50.0729 714.221 49.8646 713.477 49.8594H710.727V54.3203Z" fill="white"/>
<path d="M219.453 13.7188H220.742V15.5391H219.453V18H217.195V15.5391H212.531L212.43 14.1172L217.172 6.625H219.453V13.7188ZM214.68 13.7188H217.195V9.70312L217.047 9.96094L214.68 13.7188ZM229.617 13.2969C229.617 14.8698 229.292 16.0729 228.641 16.9062C227.99 17.7396 227.036 18.1562 225.781 18.1562C224.542 18.1562 223.594 17.7474 222.938 16.9297C222.281 16.112 221.945 14.9401 221.93 13.4141V11.3203C221.93 9.73177 222.258 8.52604 222.914 7.70312C223.576 6.88021 224.526 6.46875 225.766 6.46875C227.005 6.46875 227.953 6.8776 228.609 7.69531C229.266 8.50781 229.602 9.67708 229.617 11.2031V13.2969ZM227.359 11C227.359 10.0573 227.229 9.3724 226.969 8.94531C226.714 8.51302 226.312 8.29688 225.766 8.29688C225.234 8.29688 224.841 8.5026 224.586 8.91406C224.336 9.32031 224.203 9.95833 224.188 10.8281V13.5938C224.188 14.5208 224.312 15.2109 224.562 15.6641C224.818 16.112 225.224 16.3359 225.781 16.3359C226.333 16.3359 226.732 16.1198 226.977 15.6875C227.221 15.2552 227.349 14.5938 227.359 13.7031V11ZM238.805 13.2969C238.805 14.8698 238.479 16.0729 237.828 16.9062C237.177 17.7396 236.224 18.1562 234.969 18.1562C233.729 18.1562 232.781 17.7474 232.125 16.9297C231.469 16.112 231.133 14.9401 231.117 13.4141V11.3203C231.117 9.73177 231.445 8.52604 232.102 7.70312C232.763 6.88021 233.714 6.46875 234.953 6.46875C236.193 6.46875 237.141 6.8776 237.797 7.69531C238.453 8.50781 238.789 9.67708 238.805 11.2031V13.2969ZM236.547 11C236.547 10.0573 236.417 9.3724 236.156 8.94531C235.901 8.51302 235.5 8.29688 234.953 8.29688C234.422 8.29688 234.029 8.5026 233.773 8.91406C233.523 9.32031 233.391 9.95833 233.375 10.8281V13.5938C233.375 14.5208 233.5 15.2109 233.75 15.6641C234.005 16.112 234.411 16.3359 234.969 16.3359C235.521 16.3359 235.919 16.1198 236.164 15.6875C236.409 15.2552 236.536 14.5938 236.547 13.7031V11ZM251.977 13.2969C251.977 14.8698 251.651 16.0729 251 16.9062C250.349 17.7396 249.396 18.1562 248.141 18.1562C246.901 18.1562 245.953 17.7474 245.297 16.9297C244.641 16.112 244.305 14.9401 244.289 13.4141V11.3203C244.289 9.73177 244.617 8.52604 245.273 7.70312C245.935 6.88021 246.885 6.46875 248.125 6.46875C249.365 6.46875 250.312 6.8776 250.969 7.69531C251.625 8.50781 251.961 9.67708 251.977 11.2031V13.2969ZM249.719 11C249.719 10.0573 249.589 9.3724 249.328 8.94531C249.073 8.51302 248.672 8.29688 248.125 8.29688C247.594 8.29688 247.201 8.5026 246.945 8.91406C246.695 9.32031 246.562 9.95833 246.547 10.8281V13.5938C246.547 14.5208 246.672 15.2109 246.922 15.6641C247.177 16.112 247.583 16.3359 248.141 16.3359C248.693 16.3359 249.091 16.1198 249.336 15.6875C249.581 15.2552 249.708 14.5938 249.719 13.7031V11ZM261.164 13.2969C261.164 14.8698 260.839 16.0729 260.188 16.9062C259.536 17.7396 258.583 18.1562 257.328 18.1562C256.089 18.1562 255.141 17.7474 254.484 16.9297C253.828 16.112 253.492 14.9401 253.477 13.4141V11.3203C253.477 9.73177 253.805 8.52604 254.461 7.70312C255.122 6.88021 256.073 6.46875 257.312 6.46875C258.552 6.46875 259.5 6.8776 260.156 7.69531C260.812 8.50781 261.148 9.67708 261.164 11.2031V13.2969ZM258.906 11C258.906 10.0573 258.776 9.3724 258.516 8.94531C258.26 8.51302 257.859 8.29688 257.312 8.29688C256.781 8.29688 256.388 8.5026 256.133 8.91406C255.883 9.32031 255.75 9.95833 255.734 10.8281V13.5938C255.734 14.5208 255.859 15.2109 256.109 15.6641C256.365 16.112 256.771 16.3359 257.328 16.3359C257.88 16.3359 258.279 16.1198 258.523 15.6875C258.768 15.2552 258.896 14.5938 258.906 13.7031V11ZM270.352 13.2969C270.352 14.8698 270.026 16.0729 269.375 16.9062C268.724 17.7396 267.771 18.1562 266.516 18.1562C265.276 18.1562 264.328 17.7474 263.672 16.9297C263.016 16.112 262.68 14.9401 262.664 13.4141V11.3203C262.664 9.73177 262.992 8.52604 263.648 7.70312C264.31 6.88021 265.26 6.46875 266.5 6.46875C267.74 6.46875 268.688 6.8776 269.344 7.69531C270 8.50781 270.336 9.67708 270.352 11.2031V13.2969ZM268.094 11C268.094 10.0573 267.964 9.3724 267.703 8.94531C267.448 8.51302 267.047 8.29688 266.5 8.29688C265.969 8.29688 265.576 8.5026 265.32 8.91406C265.07 9.32031 264.938 9.95833 264.922 10.8281V13.5938C264.922 14.5208 265.047 15.2109 265.297 15.6641C265.552 16.112 265.958 16.3359 266.516 16.3359C267.068 16.3359 267.466 16.1198 267.711 15.6875C267.956 15.2552 268.083 14.5938 268.094 13.7031V11ZM277.922 16.4844H275.438V18H273.094V16.4844H271.508V14.5859H273.094V13.9922H271.508V12.0938H273.094V6.625H277.516C278.37 6.625 279.12 6.77865 279.766 7.08594C280.411 7.39323 280.911 7.83333 281.266 8.40625C281.625 8.97396 281.805 9.6224 281.805 10.3516C281.805 11.4766 281.422 12.3646 280.656 13.0156C279.896 13.6667 278.836 13.9922 277.477 13.9922H275.438V14.5859H277.922V16.4844ZM275.438 12.0938H277.461C278.773 12.0938 279.43 11.5182 279.43 10.3672C279.43 9.82031 279.263 9.38021 278.93 9.04688C278.596 8.70833 278.135 8.53646 277.547 8.53125H275.438V12.0938Z" fill="white"/>
<rect x="4" y="32" width="714" height="6" fill="white"/>
<rect x="4" y="32" width="440" height="6" fill="url(#paint0_linear_10116_3)"/>
</g>
<defs>
<filter id="filter0_d_10116_3" x="0" y="4.86719" width="722" height="63.2891" filterUnits="userSpaceOnUse" color-interpolation-filters="sRGB">
<feFlood flood-opacity="0" result="BackgroundImageFix"/>
<feColorMatrix in="SourceAlpha" type="matrix" values="0 0 0 0 0 0 0 0 0 0 0 0 0 0 0 0 0 0 127 0" result="hardAlpha"/>
<feOffset dy="4"/>
<feGaussianBlur stdDeviation="2"/>
<feComposite in2="hardAlpha" operator="out"/>
<feColorMatrix type="matrix" values="0 0 0 0 0 0 0 0 0 0 0 0 0 0 0 0 0 0 0.25 0"/>
<feBlend mode="normal" in2="BackgroundImageFix" result="effect1_dropShadow_10116_3"/>
<feBlend mode="normal" in="SourceGraphic" in2="effect1_dropShadow_10116_3" result="shape"/>
</filter>
<linearGradient id="paint0_linear_10116_3" x1="57.3728" y1="32" x2="67.5663" y2="94.5061" gradientUnits="userSpaceOnUse">
<stop stop-color="#DF5950"/>
<stop offset="1" stop-color="#451046"/>
</linearGradient>
</defs>
</svg>
